<svg width="9" height="14" viewBox="0 0 9 14" fill="none" xmlns="http://www.w3.org/2000/svg">
<path d="M3.66324 0C5.13857 0.891403 6.09596 2.14253 6.43677 3.84615C6.63407 4.82805 6.52197 5.80769 6.41211 6.78733C6.41211 6.8733 6.38967 6.95928 6.37173 7.0905C7.17666 6.63801 7.42554 5.9457 7.46814 5.09276C7.52017 5.14371 7.56957 5.19733 7.61613 5.2534C8.23565 6.02831 8.67677 6.93246 8.90759 7.90046C9.16992 9.15159 8.85603 10.2783 8.19012 11.3281C7.51076 12.3531 6.65676 13.2485 5.66771 13.9729C5.82915 13.7783 5.99506 13.5905 6.14752 13.3891C6.533 12.9118 6.79839 12.3475 6.92106 11.7444C7.04065 11.0604 6.91168 10.3559 6.55784 9.76018C6.21703 9.16969 5.80448 8.62897 5.42107 8.05431C5.1139 7.60182 4.78879 7.14933 4.82467 6.55431C4.82467 6.362 4.88744 6.16969 4.9278 5.9276C3.43229 7.0362 3.20136 8.53393 3.48163 10.2081C3.12737 10.0814 2.96145 9.77603 2.85831 9.08824C1.84486 10.4321 1.52872 12.0747 3.30674 14C3.11391 13.8371 2.91437 13.6787 2.72603 13.5091C1.95364 12.8461 1.2827 12.0715 0.735011 11.2104C-0.220139 9.65837 -0.22239 8.08372 0.600475 6.48191C1.08029 5.55204 1.75518 4.76697 2.40988 3.96381C2.69912 3.60634 2.98611 3.24661 3.25293 2.87557C3.88521 1.99774 4.15875 1.06109 3.66324 0Z" fill="black"/>
</svg>
